NotoSansNabataean-Regular.ufo
<glyph name="u10880" format="2">
  <advance width="825"/>
  <unicode hex="10880"/>
  <outline>
    <contour>
      <point x="810" y="-100" type="curve" smooth="yes"/>
      <point x="847" y="-100"/>
      <point x="855" y="-90"/>
      <point x="855" y="-61" type="curve" smooth="yes"/>
      <point x="855" y="-37"/>
      <point x="842" y="-32"/>
      <point x="817" y="-28" type="curve" smooth="yes"/>
      <point x="703" y="-11" type="line" smooth="yes"/>
      <point x="544" y="13"/>
      <point x="501" y="31"/>
      <point x="426" y="363" type="curve" smooth="yes"/>
      <point x="392" y="514"/>
      <point x="358" y="640"/>
      <point x="163" y="640" type="curve" smooth="yes"/>
      <point x="115" y="640"/>
      <point x="91" y="637"/>
      <point x="91" y="599" type="curve" smooth="yes"/>
      <point x="91" y="574"/>
      <point x="105" y="562"/>
      <point x="136" y="562" type="curve" smooth="yes"/>
      <point x="282" y="562"/>
      <point x="303" y="525"/>
      <point x="339" y="360" type="curve" smooth="yes"/>
      <point x="401" y="77"/>
      <point x="435" y="-41"/>
      <point x="620" y="-77" type="curve" smooth="yes"/>
      <point x="663" y="-85"/>
      <point x="770" y="-100"/>
    </contour>
    <contour>
      <point x="275" y="78" type="curve" smooth="yes"/>
      <point x="299" y="78"/>
      <point x="305" y="102"/>
      <point x="305" y="120" type="curve" smooth="yes"/>
      <point x="305" y="139"/>
      <point x="299" y="144"/>
      <point x="288" y="148" type="curve" smooth="yes"/>
      <point x="192" y="183"/>
      <point x="119" y="219"/>
      <point x="119" y="290" type="curve" smooth="yes"/>
      <point x="119" y="322"/>
      <point x="138" y="333"/>
      <point x="198" y="334" type="curve" smooth="yes"/>
      <point x="395" y="336" type="line" smooth="yes"/>
      <point x="584" y="338"/>
      <point x="648" y="378"/>
      <point x="648" y="478" type="curve" smooth="yes"/>
      <point x="648" y="509"/>
      <point x="642" y="553"/>
      <point x="635" y="579" type="curve" smooth="yes"/>
      <point x="627" y="608"/>
      <point x="616" y="614"/>
      <point x="592" y="614" type="curve" smooth="yes"/>
      <point x="561" y="614"/>
      <point x="552" y="604"/>
      <point x="552" y="590" type="curve" smooth="yes"/>
      <point x="552" y="583"/>
      <point x="554" y="571"/>
      <point x="557" y="558" type="curve" smooth="yes"/>
      <point x="562" y="537"/>
      <point x="567" y="510"/>
      <point x="567" y="492" type="curve" smooth="yes"/>
      <point x="567" y="421"/>
      <point x="506" y="413"/>
      <point x="390" y="410" type="curve" smooth="yes"/>
      <point x="182" y="405" type="line" smooth="yes"/>
      <point x="78" y="403"/>
      <point x="30" y="366"/>
      <point x="30" y="289" type="curve" smooth="yes"/>
      <point x="30" y="180"/>
      <point x="126" y="123"/>
      <point x="222" y="91" type="curve" smooth="yes"/>
      <point x="243" y="84"/>
      <point x="263" y="78"/>
    </contour>
  </outline>
</glyph>
<glyph name="u10881" format="2">
  <advance width="530"/>
  <unicode hex="10881"/>
  <outline>
    <contour>
      <point x="301" y="-10" type="curve" smooth="yes"/>
      <point x="451" y="-10"/>
      <point x="480" y="99"/>
      <point x="480" y="204" type="curve" smooth="yes"/>
      <point x="480" y="363"/>
      <point x="417" y="547"/>
      <point x="259" y="547" type="curve"/>
      <point x="323" y="600"/>
      <point x="377" y="661"/>
      <point x="377" y="700" type="curve" smooth="yes"/>
      <point x="377" y="719"/>
      <point x="368" y="730"/>
      <point x="340" y="730" type="curve" smooth="yes"/>
      <point x="320" y="730"/>
      <point x="308" y="721"/>
      <point x="296" y="706" type="curve" smooth="yes"/>
      <point x="246" y="640"/>
      <point x="222" y="610"/>
      <point x="129" y="528" type="curve"/>
      <point x="80" y="498"/>
      <point x="60" y="456"/>
      <point x="60" y="366" type="curve" smooth="yes"/>
      <point x="60" y="178"/>
      <point x="143" y="-10"/>
    </contour>
    <contour>
      <point x="300" y="63" type="curve" smooth="yes"/>
      <point x="201" y="63"/>
      <point x="147" y="229"/>
      <point x="147" y="356" type="curve" smooth="yes"/>
      <point x="147" y="433"/>
      <point x="182" y="473"/>
      <point x="240" y="473" type="curve" smooth="yes"/>
      <point x="346" y="473"/>
      <point x="393" y="345"/>
      <point x="393" y="191" type="curve" smooth="yes"/>
      <point x="393" y="125"/>
      <point x="374" y="63"/>
    </contour>
  </outline>
</glyph>
<glyph name="u10882" format="2">
  <advance width="694"/>
  <unicode hex="10882"/>
  <outline>
    <contour>
      <point x="45" y="-10" type="curve" smooth="yes"/>
      <point x="57" y="-10"/>
      <point x="72" y="-6"/>
      <point x="96" y="6" type="curve" smooth="yes"/>
      <point x="128" y="22"/>
      <point x="176" y="33"/>
      <point x="210" y="33" type="curve" smooth="yes"/>
      <point x="245" y="33"/>
      <point x="288" y="22"/>
      <point x="331" y="11" type="curve" smooth="yes"/>
      <point x="372" y="0"/>
      <point x="412" y="-10"/>
      <point x="445" y="-10" type="curve" smooth="yes"/>
      <point x="544" y="-10"/>
      <point x="580" y="50"/>
      <point x="589" y="150" type="curve" smooth="yes"/>
      <point x="592" y="184"/>
      <point x="604" y="389"/>
      <point x="604" y="421" type="curve" smooth="yes"/>
      <point x="604" y="547"/>
      <point x="560" y="592"/>
      <point x="470" y="592" type="curve" smooth="yes"/>
      <point x="426" y="592"/>
      <point x="393" y="586"/>
      <point x="363" y="576" type="curve" smooth="yes"/>
      <point x="341" y="569"/>
      <point x="320" y="563"/>
      <point x="299" y="563" type="curve" smooth="yes"/>
      <point x="278" y="563"/>
      <point x="263" y="571"/>
      <point x="250" y="579" type="curve" smooth="yes"/>
      <point x="242" y="584"/>
      <point x="235" y="588"/>
      <point x="229" y="588" type="curve" smooth="yes"/>
      <point x="214" y="588"/>
      <point x="202" y="566"/>
      <point x="202" y="549" type="curve" smooth="yes"/>
      <point x="202" y="545"/>
      <point x="203" y="537"/>
      <point x="206" y="532" type="curve" smooth="yes"/>
      <point x="225" y="502"/>
      <point x="256" y="492"/>
      <point x="290" y="492" type="curve" smooth="yes"/>
      <point x="315" y="492"/>
      <point x="337" y="496"/>
      <point x="362" y="503" type="curve" smooth="yes"/>
      <point x="389" y="511"/>
      <point x="417" y="518"/>
      <point x="447" y="518" type="curve" smooth="yes"/>
      <point x="504" y="518"/>
      <point x="516" y="489"/>
      <point x="516" y="410" type="curve" smooth="yes"/>
      <point x="516" y="383"/>
      <point x="504" y="182"/>
      <point x="501" y="147" type="curve" smooth="yes"/>
      <point x="495" y="82"/>
      <point x="472" y="63"/>
      <point x="434" y="63" type="curve" smooth="yes"/>
      <point x="401" y="63"/>
      <point x="372" y="72"/>
      <point x="340" y="82" type="curve" smooth="yes"/>
      <point x="301" y="94"/>
      <point x="260" y="106"/>
      <point x="204" y="106" type="curve" smooth="yes"/>
      <point x="113" y="106"/>
      <point x="10" y="70"/>
      <point x="10" y="27" type="curve" smooth="yes"/>
      <point x="10" y="0"/>
      <point x="24" y="-10"/>
    </contour>
  </outline>
</glyph>
<glyph name="u10883" format="2">
  <advance width="590"/>
  <unicode hex="10883"/>
  <outline>
    <contour>
      <point x="278" y="-10" type="curve" smooth="yes"/>
      <point x="473" y="-10"/>
      <point x="490" y="182"/>
      <point x="496" y="369" type="curve" smooth="yes"/>
      <point x="498" y="432"/>
      <point x="500" y="525"/>
      <point x="500" y="570" type="curve" smooth="yes"/>
      <point x="500" y="597"/>
      <point x="483" y="604"/>
      <point x="460" y="604" type="curve" smooth="yes"/>
      <point x="434" y="604"/>
      <point x="415" y="599"/>
      <point x="414" y="570" type="curve" smooth="yes"/>
      <point x="413" y="549"/>
      <point x="411" y="433"/>
      <point x="410" y="364" type="curve" smooth="yes"/>
      <point x="407" y="199"/>
      <point x="390" y="70"/>
      <point x="268" y="70" type="curve" smooth="yes"/>
      <point x="194" y="70"/>
      <point x="60" y="125"/>
      <point x="37" y="125" type="curve" smooth="yes"/>
      <point x="18" y="125"/>
      <point x="10" y="103"/>
      <point x="10" y="83" type="curve" smooth="yes"/>
      <point x="10" y="66"/>
      <point x="12" y="54"/>
      <point x="33" y="46" type="curve" smooth="yes"/>
      <point x="78" y="28"/>
      <point x="198" y="-10"/>
    </contour>
  </outline>
</glyph>
<glyph name="u10884" format="2">
  <advance width="692"/>
  <unicode hex="10884"/>
  <outline>
    <contour>
      <point x="656" y="66" type="curve" smooth="yes"/>
      <point x="679" y="66"/>
      <point x="692" y="77"/>
      <point x="692" y="95" type="curve" smooth="yes"/>
      <point x="692" y="170"/>
      <point x="258" y="620"/>
      <point x="187" y="620" type="curve" smooth="yes"/>
      <point x="160" y="620"/>
      <point x="147" y="595"/>
      <point x="147" y="578" type="curve" smooth="yes"/>
      <point x="147" y="567"/>
      <point x="152" y="556"/>
      <point x="165" y="547" type="curve" smooth="yes"/>
      <point x="293" y="457"/>
      <point x="534" y="199"/>
      <point x="609" y="95" type="curve" smooth="yes"/>
      <point x="625" y="73"/>
      <point x="636" y="66"/>
    </contour>
    <contour>
      <point x="62" y="239" type="curve" smooth="yes"/>
      <point x="79" y="239"/>
      <point x="115" y="242"/>
      <point x="157" y="247" type="curve" smooth="yes"/>
      <point x="216" y="254"/>
      <point x="281" y="257"/>
      <point x="335" y="257" type="curve" smooth="yes"/>
      <point x="372" y="257"/>
      <point x="452" y="252"/>
      <point x="500" y="244" type="curve"/>
      <point x="442" y="328" type="line"/>
      <point x="411" y="331"/>
      <point x="332" y="336"/>
      <point x="300" y="336" type="curve" smooth="yes"/>
      <point x="187" y="336"/>
      <point x="79" y="322"/>
      <point x="46" y="314" type="curve" smooth="yes"/>
      <point x="16" y="307"/>
      <point x="10" y="296"/>
      <point x="10" y="278" type="curve" smooth="yes"/>
      <point x="10" y="244"/>
      <point x="30" y="239"/>
    </contour>
  </outline>
</glyph>
<glyph name="u10885" format="2">
  <advance width="440"/>
  <unicode hex="10885"/>
  <outline>
    <contour>
      <point x="307" y="-10" type="curve" smooth="yes"/>
      <point x="345" y="-10"/>
      <point x="350" y="5"/>
      <point x="350" y="41" type="curve" smooth="yes"/>
      <point x="350" y="561" type="line" smooth="yes"/>
      <point x="350" y="618"/>
      <point x="331" y="635"/>
      <point x="290" y="635" type="curve" smooth="yes"/>
      <point x="272" y="635"/>
      <point x="255" y="630"/>
      <point x="235" y="623" type="curve" smooth="yes"/>
      <point x="211" y="614"/>
      <point x="185" y="606"/>
      <point x="153" y="606" type="curve" smooth="yes"/>
      <point x="113" y="606"/>
      <point x="91" y="618"/>
      <point x="73" y="629" type="curve" smooth="yes"/>
      <point x="62" y="636"/>
      <point x="53" y="640"/>
      <point x="43" y="640" type="curve" smooth="yes"/>
      <point x="20" y="640"/>
      <point x="10" y="627"/>
      <point x="10" y="604" type="curve" smooth="yes"/>
      <point x="10" y="564"/>
      <point x="73" y="523"/>
      <point x="139" y="523" type="curve" smooth="yes"/>
      <point x="171" y="523"/>
      <point x="186" y="527"/>
      <point x="203" y="533" type="curve" smooth="yes"/>
      <point x="217" y="538"/>
      <point x="226" y="540"/>
      <point x="235" y="540" type="curve" smooth="yes"/>
      <point x="257" y="540"/>
      <point x="262" y="525"/>
      <point x="262" y="495" type="curve" smooth="yes"/>
      <point x="262" y="41" type="line" smooth="yes"/>
      <point x="262" y="5"/>
      <point x="268" y="-10"/>
    </contour>
  </outline>
</glyph>
<glyph name="u10886" format="2">
  <advance width="524"/>
  <unicode hex="10886"/>
  <outline>
    <contour>
      <point x="235" y="-10" type="curve" smooth="yes"/>
      <point x="357" y="-10"/>
      <point x="436" y="53"/>
      <point x="436" y="251" type="curve" smooth="yes"/>
      <point x="436" y="338"/>
      <point x="419" y="423"/>
      <point x="401" y="503" type="curve" smooth="yes"/>
      <point x="387" y="566"/>
      <point x="373" y="646"/>
      <point x="373" y="674" type="curve" smooth="yes"/>
      <point x="373" y="698"/>
      <point x="364" y="704"/>
      <point x="335" y="704" type="curve" smooth="yes"/>
      <point x="308" y="704"/>
      <point x="296" y="696"/>
      <point x="296" y="680" type="curve" smooth="yes"/>
      <point x="296" y="656"/>
      <point x="298" y="635"/>
      <point x="301" y="615" type="curve"/>
      <point x="253" y="606"/>
      <point x="191" y="602"/>
      <point x="130" y="602" type="curve" smooth="yes"/>
      <point x="110" y="602"/>
      <point x="94" y="602"/>
      <point x="79" y="604" type="curve" smooth="yes"/>
      <point x="64" y="606"/>
      <point x="53" y="607"/>
      <point x="42" y="607" type="curve" smooth="yes"/>
      <point x="21" y="607"/>
      <point x="10" y="598"/>
      <point x="10" y="575" type="curve" smooth="yes"/>
      <point x="10" y="540"/>
      <point x="33" y="533"/>
      <point x="92" y="530" type="curve"/>
      <point x="75" y="454"/>
      <point x="50" y="338"/>
      <point x="50" y="228" type="curve" smooth="yes"/>
      <point x="50" y="119"/>
      <point x="79" y="-10"/>
    </contour>
    <contour>
      <point x="237" y="63" type="curve" smooth="yes"/>
      <point x="156" y="63"/>
      <point x="140" y="138"/>
      <point x="140" y="246" type="curve" smooth="yes"/>
      <point x="140" y="328"/>
      <point x="158" y="457"/>
      <point x="173" y="530" type="curve"/>
      <point x="219" y="532"/>
      <point x="270" y="537"/>
      <point x="308" y="544" type="curve"/>
      <point x="335" y="439"/>
      <point x="347" y="361"/>
      <point x="347" y="253" type="curve" smooth="yes"/>
      <point x="347" y="112"/>
      <point x="316" y="63"/>
    </contour>
  </outline>
</glyph>
<glyph name="u10887" format="2">
  <advance width="581"/>
  <unicode hex="10887"/>
  <outline>
    <contour>
      <point x="444" y="-10" type="curve" smooth="yes"/>
      <point x="482" y="-10"/>
      <point x="487" y="5"/>
      <point x="487" y="41" type="curve" smooth="yes"/>
      <point x="487" y="179" type="line" smooth="yes"/>
      <point x="487" y="310"/>
      <point x="468" y="411"/>
      <point x="450" y="499" type="curve" smooth="yes"/>
      <point x="437" y="565"/>
      <point x="427" y="623"/>
      <point x="427" y="680" type="curve" smooth="yes"/>
      <point x="427" y="702"/>
      <point x="412" y="704"/>
      <point x="388" y="704" type="curve" smooth="yes"/>
      <point x="361" y="704"/>
      <point x="346" y="702"/>
      <point x="346" y="680" type="curve" smooth="yes"/>
      <point x="346" y="650"/>
      <point x="347" y="629"/>
      <point x="349" y="605" type="curve"/>
      <point x="288" y="596"/>
      <point x="215" y="592"/>
      <point x="152" y="592" type="curve" smooth="yes"/>
      <point x="117" y="592"/>
      <point x="88" y="592"/>
      <point x="65" y="595" type="curve" smooth="yes"/>
      <point x="49" y="597"/>
      <point x="42" y="597"/>
      <point x="35" y="597" type="curve" smooth="yes"/>
      <point x="19" y="597"/>
      <point x="10" y="583"/>
      <point x="10" y="559" type="curve" smooth="yes"/>
      <point x="10" y="522"/>
      <point x="40" y="519"/>
      <point x="127" y="515" type="curve"/>
      <point x="133" y="483"/>
      <point x="138" y="438"/>
      <point x="138" y="384" type="curve" smooth="yes"/>
      <point x="138" y="311"/>
      <point x="129" y="235"/>
      <point x="115" y="174" type="curve" smooth="yes"/>
      <point x="103" y="122"/>
      <point x="96" y="90"/>
      <point x="96" y="69" type="curve" smooth="yes"/>
      <point x="96" y="43"/>
      <point x="108" y="33"/>
      <point x="138" y="33" type="curve" smooth="yes"/>
      <point x="161" y="33"/>
      <point x="180" y="46"/>
      <point x="188" y="84" type="curve" smooth="yes"/>
      <point x="206" y="168"/>
      <point x="221" y="293"/>
      <point x="221" y="380" type="curve" smooth="yes"/>
      <point x="221" y="431"/>
      <point x="217" y="493"/>
      <point x="213" y="517" type="curve"/>
      <point x="262" y="519"/>
      <point x="319" y="524"/>
      <point x="357" y="530" type="curve"/>
      <point x="379" y="442"/>
      <point x="399" y="329"/>
      <point x="399" y="203" type="curve" smooth="yes"/>
      <point x="399" y="41" type="line" smooth="yes"/>
      <point x="399" y="5"/>
      <point x="405" y="-10"/>
    </contour>
  </outline>
</glyph>
<glyph name="u10888" format="2">
  <advance width="408"/>
  <unicode hex="10888"/>
  <outline>
    <contour>
      <point x="275" y="-10" type="curve" smooth="yes"/>
      <point x="313" y="-10"/>
      <point x="318" y="5"/>
      <point x="318" y="41" type="curve" smooth="yes"/>
      <point x="318" y="492" type="line" smooth="yes"/>
      <point x="318" y="602"/>
      <point x="261" y="640"/>
      <point x="185" y="640" type="curve" smooth="yes"/>
      <point x="85" y="640"/>
      <point x="40" y="577"/>
      <point x="40" y="509" type="curve" smooth="yes"/>
      <point x="40" y="438"/>
      <point x="80" y="378"/>
      <point x="140" y="378" type="curve" smooth="yes"/>
      <point x="168" y="378"/>
      <point x="180" y="393"/>
      <point x="180" y="416" type="curve" smooth="yes"/>
      <point x="180" y="432"/>
      <point x="175" y="442"/>
      <point x="160" y="452" type="curve" smooth="yes"/>
      <point x="144" y="462"/>
      <point x="128" y="481"/>
      <point x="128" y="511" type="curve" smooth="yes"/>
      <point x="128" y="545"/>
      <point x="147" y="566"/>
      <point x="182" y="566" type="curve" smooth="yes"/>
      <point x="212" y="566"/>
      <point x="230" y="549"/>
      <point x="230" y="496" type="curve" smooth="yes"/>
      <point x="230" y="41" type="line" smooth="yes"/>
      <point x="230" y="5"/>
      <point x="236" y="-10"/>
    </contour>
  </outline>
</glyph>
<glyph name="u10889" format="2">
  <advance width="268"/>
  <unicode hex="10889"/>
  <outline>
    <contour>
      <point x="135" y="-61" type="curve" smooth="yes"/>
      <point x="173" y="-61"/>
      <point x="178" y="-46"/>
      <point x="178" y="-10" type="curve" smooth="yes"/>
      <point x="178" y="596" type="line" smooth="yes"/>
      <point x="178" y="627"/>
      <point x="171" y="640"/>
      <point x="133" y="640" type="curve" smooth="yes"/>
      <point x="95" y="640"/>
      <point x="90" y="625"/>
      <point x="90" y="596" type="curve" smooth="yes"/>
      <point x="90" y="-10" type="line" smooth="yes"/>
      <point x="90" y="-46"/>
      <point x="96" y="-61"/>
    </contour>
  </outline>
</glyph>
<glyph name="u1088A" format="2">
  <advance width="706"/>
  <unicode hex="1088A"/>
  <outline>
    <contour>
      <point x="171" y="-10" type="curve" smooth="yes"/>
      <point x="313" y="-10"/>
      <point x="315" y="97"/>
      <point x="315" y="193" type="curve" smooth="yes"/>
      <point x="315" y="548" type="line" smooth="yes"/>
      <point x="315" y="585"/>
      <point x="309" y="600"/>
      <point x="270" y="600" type="curve" smooth="yes"/>
      <point x="232" y="600"/>
      <point x="227" y="584"/>
      <point x="227" y="548" type="curve" smooth="yes"/>
      <point x="227" y="213" type="line" smooth="yes"/>
      <point x="227" y="120"/>
      <point x="223" y="68"/>
      <point x="166" y="68" type="curve" smooth="yes"/>
      <point x="140" y="68"/>
      <point x="108" y="80"/>
      <point x="84" y="92" type="curve" smooth="yes"/>
      <point x="66" y="101"/>
      <point x="52" y="106"/>
      <point x="43" y="106" type="curve" smooth="yes"/>
      <point x="23" y="106"/>
      <point x="10" y="80"/>
      <point x="10" y="62" type="curve" smooth="yes"/>
      <point x="10" y="47"/>
      <point x="16" y="41"/>
      <point x="25" y="35" type="curve" smooth="yes"/>
      <point x="52" y="17"/>
      <point x="102" y="-10"/>
    </contour>
    <contour>
      <point x="573" y="-10" type="curve" smooth="yes"/>
      <point x="611" y="-10"/>
      <point x="616" y="5"/>
      <point x="616" y="41" type="curve" smooth="yes"/>
      <point x="616" y="588" type="line" smooth="yes"/>
      <point x="616" y="625"/>
      <point x="610" y="640"/>
      <point x="571" y="640" type="curve" smooth="yes"/>
      <point x="533" y="640"/>
      <point x="528" y="624"/>
      <point x="528" y="588" type="curve" smooth="yes"/>
      <point x="528" y="41" type="line" smooth="yes"/>
      <point x="528" y="5"/>
      <point x="534" y="-10"/>
    </contour>
    <contour>
      <point x="291" y="382" type="line"/>
      <point x="381" y="449" type="line" smooth="yes"/>
      <point x="396" y="460"/>
      <point x="407" y="468"/>
      <point x="420" y="468" type="curve" smooth="yes"/>
      <point x="435" y="468"/>
      <point x="447" y="460"/>
      <point x="463" y="448" type="curve" smooth="yes"/>
      <point x="552" y="382" type="line"/>
      <point x="552" y="475" type="line"/>
      <point x="467" y="531" type="line" smooth="yes"/>
      <point x="451" y="542"/>
      <point x="437" y="550"/>
      <point x="422" y="550" type="curve" smooth="yes"/>
      <point x="405" y="550"/>
      <point x="392" y="542"/>
      <point x="376" y="531" type="curve" smooth="yes"/>
      <point x="291" y="471" type="line"/>
    </contour>
  </outline>
</glyph>
<glyph name="u1088B" format="2">
  <advance width="761"/>
  <unicode hex="1088B"/>
  <outline>
    <contour>
      <point x="289" y="-10" type="curve" smooth="yes"/>
      <point x="472" y="-10"/>
      <point x="711" y="174"/>
      <point x="711" y="378" type="curve" smooth="yes"/>
      <point x="711" y="451"/>
      <point x="659" y="486"/>
      <point x="580" y="486" type="curve" smooth="yes"/>
      <point x="445" y="486"/>
      <point x="328" y="405"/>
      <point x="250" y="321" type="curve" smooth="yes"/>
      <point x="237" y="307"/>
      <point x="230" y="294"/>
      <point x="230" y="277" type="curve" smooth="yes"/>
      <point x="230" y="252"/>
      <point x="247" y="242"/>
      <point x="263" y="242" type="curve" smooth="yes"/>
      <point x="282" y="242"/>
      <point x="291" y="250"/>
      <point x="300" y="258" type="curve" smooth="yes"/>
      <point x="365" y="322"/>
      <point x="458" y="411"/>
      <point x="561" y="411" type="curve" smooth="yes"/>
      <point x="606" y="411"/>
      <point x="625" y="391"/>
      <point x="625" y="355" type="curve" smooth="yes"/>
      <point x="625" y="251"/>
      <point x="440" y="68"/>
      <point x="297" y="68" type="curve" smooth="yes"/>
      <point x="205" y="68"/>
      <point x="178" y="118"/>
      <point x="178" y="348" type="curve" smooth="yes"/>
      <point x="178" y="382"/>
      <point x="181" y="446"/>
      <point x="184" y="499" type="curve" smooth="yes"/>
      <point x="186" y="530"/>
      <point x="187" y="552"/>
      <point x="187" y="566" type="curve" smooth="yes"/>
      <point x="187" y="588"/>
      <point x="166" y="592"/>
      <point x="149" y="592" type="curve" smooth="yes"/>
      <point x="109" y="592"/>
      <point x="102" y="581"/>
      <point x="100" y="561" type="curve" smooth="yes"/>
      <point x="95" y="511"/>
      <point x="90" y="405"/>
      <point x="90" y="351" type="curve" smooth="yes"/>
      <point x="90" y="92"/>
      <point x="132" y="-10"/>
    </contour>
  </outline>
</glyph>
<glyph name="u1088C" format="2">
  <advance width="531"/>
  <unicode hex="1088C"/>
  <outline>
    <contour>
      <point x="289" y="-10" type="curve" smooth="yes"/>
      <point x="327" y="-10"/>
      <point x="333" y="5"/>
      <point x="333" y="41" type="curve" smooth="yes"/>
      <point x="333" y="76" type="line" smooth="yes"/>
      <point x="333" y="168"/>
      <point x="287" y="213"/>
      <point x="241" y="258" type="curve" smooth="yes"/>
      <point x="194" y="303"/>
      <point x="148" y="349"/>
      <point x="148" y="444" type="curve" smooth="yes"/>
      <point x="148" y="518"/>
      <point x="199" y="565"/>
      <point x="262" y="565" type="curve" smooth="yes"/>
      <point x="322" y="565"/>
      <point x="358" y="535"/>
      <point x="371" y="482" type="curve" smooth="yes"/>
      <point x="376" y="461"/>
      <point x="391" y="461"/>
      <point x="404" y="461" type="curve" smooth="yes"/>
      <point x="425" y="461"/>
      <point x="431" y="468"/>
      <point x="436" y="487" type="curve" smooth="yes"/>
      <point x="445" y="523"/>
      <point x="459" y="555"/>
      <point x="475" y="583" type="curve" smooth="yes"/>
      <point x="491" y="611"/>
      <point x="503" y="634"/>
      <point x="503" y="653" type="curve" smooth="yes"/>
      <point x="503" y="670"/>
      <point x="490" y="685"/>
      <point x="465" y="685" type="curve" smooth="yes"/>
      <point x="451" y="685"/>
      <point x="444" y="680"/>
      <point x="433" y="664" type="curve" smooth="yes"/>
      <point x="419" y="644"/>
      <point x="404" y="612"/>
      <point x="392" y="578" type="curve"/>
      <point x="374" y="606"/>
      <point x="326" y="640"/>
      <point x="253" y="640" type="curve" smooth="yes"/>
      <point x="139" y="640"/>
      <point x="60" y="548"/>
      <point x="60" y="432" type="curve" smooth="yes"/>
      <point x="60" y="327"/>
      <point x="118" y="264"/>
      <point x="169" y="211" type="curve" smooth="yes"/>
      <point x="210" y="169"/>
      <point x="245" y="130"/>
      <point x="245" y="75" type="curve" smooth="yes"/>
      <point x="245" y="41" type="line" smooth="yes"/>
      <point x="245" y="5"/>
      <point x="250" y="-10"/>
    </contour>
  </outline>
</glyph>
<glyph name="u1088D" format="2">
  <advance width="429"/>
  <unicode hex="1088D"/>
  <outline>
    <contour>
      <point x="231" y="-10" type="curve" smooth="yes"/>
      <point x="269" y="-10"/>
      <point x="275" y="5"/>
      <point x="275" y="41" type="curve" smooth="yes"/>
      <point x="275" y="76" type="line" smooth="yes"/>
      <point x="275" y="146"/>
      <point x="247" y="197"/>
      <point x="216" y="251" type="curve" smooth="yes"/>
      <point x="181" y="312"/>
      <point x="148" y="372"/>
      <point x="148" y="457" type="curve" smooth="yes"/>
      <point x="148" y="527"/>
      <point x="194" y="565"/>
      <point x="245" y="565" type="curve" smooth="yes"/>
      <point x="278" y="565"/>
      <point x="310" y="551"/>
      <point x="331" y="539" type="curve" smooth="yes"/>
      <point x="339" y="535"/>
      <point x="347" y="533"/>
      <point x="353" y="533" type="curve" smooth="yes"/>
      <point x="378" y="533"/>
      <point x="389" y="561"/>
      <point x="389" y="574" type="curve" smooth="yes"/>
      <point x="389" y="579"/>
      <point x="388" y="587"/>
      <point x="382" y="593" type="curve" smooth="yes"/>
      <point x="360" y="615"/>
      <point x="305" y="640"/>
      <point x="238" y="640" type="curve" smooth="yes"/>
      <point x="136" y="640"/>
      <point x="60" y="573"/>
      <point x="60" y="457" type="curve" smooth="yes"/>
      <point x="60" y="376"/>
      <point x="97" y="304"/>
      <point x="131" y="238" type="curve" smooth="yes"/>
      <point x="160" y="182"/>
      <point x="187" y="129"/>
      <point x="187" y="74" type="curve" smooth="yes"/>
      <point x="187" y="41" type="line" smooth="yes"/>
      <point x="187" y="5"/>
      <point x="192" y="-10"/>
    </contour>
  </outline>
</glyph>
<glyph name="u1088E" format="2">
  <advance width="440"/>
  <unicode hex="1088E"/>
  <outline>
    <contour>
      <point x="306" y="-163" type="curve" smooth="yes"/>
      <point x="344" y="-163"/>
      <point x="350" y="-148"/>
      <point x="350" y="-112" type="curve" smooth="yes"/>
      <point x="350" y="561" type="line" smooth="yes"/>
      <point x="350" y="618"/>
      <point x="331" y="635"/>
      <point x="290" y="635" type="curve" smooth="yes"/>
      <point x="272" y="635"/>
      <point x="255" y="630"/>
      <point x="235" y="623" type="curve" smooth="yes"/>
      <point x="211" y="614"/>
      <point x="185" y="606"/>
      <point x="153" y="606" type="curve" smooth="yes"/>
      <point x="113" y="606"/>
      <point x="91" y="618"/>
      <point x="73" y="629" type="curve" smooth="yes"/>
      <point x="62" y="636"/>
      <point x="53" y="640"/>
      <point x="43" y="640" type="curve" smooth="yes"/>
      <point x="20" y="640"/>
      <point x="10" y="627"/>
      <point x="10" y="604" type="curve" smooth="yes"/>
      <point x="10" y="564"/>
      <point x="73" y="523"/>
      <point x="139" y="523" type="curve" smooth="yes"/>
      <point x="171" y="523"/>
      <point x="186" y="527"/>
      <point x="203" y="533" type="curve" smooth="yes"/>
      <point x="217" y="538"/>
      <point x="226" y="540"/>
      <point x="235" y="540" type="curve" smooth="yes"/>
      <point x="257" y="540"/>
      <point x="262" y="525"/>
      <point x="262" y="495" type="curve" smooth="yes"/>
      <point x="262" y="-112" type="line" smooth="yes"/>
      <point x="262" y="-148"/>
      <point x="267" y="-163"/>
    </contour>
  </outline>
</glyph>
<glyph name="u1088F" format="2">
  <advance width="506"/>
  <unicode hex="1088F"/>
  <outline>
    <contour>
      <point x="167" y="-6" type="curve" smooth="yes"/>
      <point x="231" y="-6"/>
      <point x="291" y="-2"/>
      <point x="335" y="5" type="curve" smooth="yes"/>
      <point x="386" y="13"/>
      <point x="416" y="38"/>
      <point x="416" y="110" type="curve" smooth="yes"/>
      <point x="416" y="561" type="line" smooth="yes"/>
      <point x="416" y="618"/>
      <point x="397" y="635"/>
      <point x="356" y="635" type="curve" smooth="yes"/>
      <point x="338" y="635"/>
      <point x="321" y="630"/>
      <point x="301" y="623" type="curve" smooth="yes"/>
      <point x="277" y="614"/>
      <point x="251" y="606"/>
      <point x="219" y="606" type="curve" smooth="yes"/>
      <point x="179" y="606"/>
      <point x="157" y="618"/>
      <point x="139" y="629" type="curve" smooth="yes"/>
      <point x="128" y="636"/>
      <point x="119" y="640"/>
      <point x="109" y="640" type="curve" smooth="yes"/>
      <point x="86" y="640"/>
      <point x="76" y="627"/>
      <point x="76" y="604" type="curve" smooth="yes"/>
      <point x="76" y="564"/>
      <point x="139" y="523"/>
      <point x="205" y="523" type="curve" smooth="yes"/>
      <point x="228" y="523"/>
      <point x="244" y="524"/>
      <point x="266" y="530" type="curve" smooth="yes"/>
      <point x="280" y="534"/>
      <point x="292" y="537"/>
      <point x="301" y="537" type="curve" smooth="yes"/>
      <point x="323" y="537"/>
      <point x="328" y="522"/>
      <point x="328" y="495" type="curve" smooth="yes"/>
      <point x="328" y="124" type="line" smooth="yes"/>
      <point x="328" y="87"/>
      <point x="318" y="85"/>
      <point x="291" y="80" type="curve" smooth="yes"/>
      <point x="264" y="75"/>
      <point x="213" y="71"/>
      <point x="160" y="71" type="curve" smooth="yes"/>
      <point x="135" y="71"/>
      <point x="94" y="74"/>
      <point x="68" y="76" type="curve" smooth="yes"/>
      <point x="56" y="77"/>
      <point x="43" y="78"/>
      <point x="36" y="78" type="curve" smooth="yes"/>
      <point x="16" y="78"/>
      <point x="10" y="56"/>
      <point x="10" y="38" type="curve" smooth="yes"/>
      <point x="10" y="25"/>
      <point x="11" y="6"/>
      <point x="36" y="2" type="curve" smooth="yes"/>
      <point x="74" y="-4"/>
      <point x="104" y="-6"/>
    </contour>
  </outline>
</glyph>
<glyph name="u10890" format="2">
  <advance width="508"/>
  <unicode hex="10890"/>
  <outline>
    <contour>
      <point x="206" y="-10" type="curve" smooth="yes"/>
      <point x="226" y="-10"/>
      <point x="245" y="0"/>
      <point x="264" y="11" type="curve" smooth="yes"/>
      <point x="372" y="74"/>
      <point x="468" y="156"/>
      <point x="468" y="247" type="curve" smooth="yes"/>
      <point x="468" y="325"/>
      <point x="426" y="363"/>
      <point x="352" y="363" type="curve" smooth="yes"/>
      <point x="304" y="363"/>
      <point x="256" y="334"/>
      <point x="222" y="311" type="curve" smooth="yes"/>
      <point x="178" y="282" type="line"/>
      <point x="178" y="589" type="line" smooth="yes"/>
      <point x="178" y="625"/>
      <point x="172" y="640"/>
      <point x="133" y="640" type="curve" smooth="yes"/>
      <point x="95" y="640"/>
      <point x="90" y="625"/>
      <point x="90" y="589" type="curve" smooth="yes"/>
      <point x="90" y="229" type="line" smooth="yes"/>
      <point x="90" y="191"/>
      <point x="110" y="181"/>
      <point x="132" y="181" type="curve" smooth="yes"/>
      <point x="156" y="181"/>
      <point x="170" y="187"/>
      <point x="193" y="202" type="curve" smooth="yes"/>
      <point x="279" y="259" type="line" smooth="yes"/>
      <point x="305" y="276"/>
      <point x="326" y="283"/>
      <point x="341" y="283" type="curve" smooth="yes"/>
      <point x="366" y="283"/>
      <point x="378" y="267"/>
      <point x="378" y="239" type="curve" smooth="yes"/>
      <point x="378" y="171"/>
      <point x="275" y="110"/>
      <point x="173" y="50" type="curve" smooth="yes"/>
      <point x="165" y="45"/>
      <point x="160" y="41"/>
      <point x="160" y="29" type="curve" smooth="yes"/>
      <point x="160" y="14"/>
      <point x="173" y="-10"/>
    </contour>
  </outline>
</glyph>
<glyph name="u10891" format="2">
  <advance width="335"/>
  <unicode hex="10891"/>
  <outline>
    <contour>
      <point x="109" y="-57" type="curve" smooth="yes"/>
      <point x="213" y="-57"/>
      <point x="245" y="-1"/>
      <point x="245" y="91" type="curve" smooth="yes"/>
      <point x="245" y="589" type="line" smooth="yes"/>
      <point x="245" y="625"/>
      <point x="239" y="640"/>
      <point x="200" y="640" type="curve" smooth="yes"/>
      <point x="162" y="640"/>
      <point x="157" y="625"/>
      <point x="157" y="589" type="curve" smooth="yes"/>
      <point x="157" y="112" type="line" smooth="yes"/>
      <point x="157" y="65"/>
      <point x="152" y="16"/>
      <point x="107" y="16" type="curve" smooth="yes"/>
      <point x="90" y="16"/>
      <point x="78" y="19"/>
      <point x="67" y="26" type="curve" smooth="yes"/>
      <point x="59" y="31"/>
      <point x="49" y="37"/>
      <point x="37" y="37" type="curve" smooth="yes"/>
      <point x="18" y="37"/>
      <point x="10" y="25"/>
      <point x="10" y="1" type="curve" smooth="yes"/>
      <point x="10" y="-41"/>
      <point x="57" y="-57"/>
    </contour>
  </outline>
</glyph>
<glyph name="u10892" format="2">
  <advance width="528"/>
  <unicode hex="10892"/>
  <outline>
    <contour>
      <point x="244" y="-10" type="curve" smooth="yes"/>
      <point x="338" y="-10"/>
      <point x="458" y="58"/>
      <point x="458" y="343" type="curve" smooth="yes"/>
      <point x="458" y="467"/>
      <point x="441" y="627"/>
      <point x="342" y="627" type="curve" smooth="yes"/>
      <point x="315" y="627"/>
      <point x="291" y="620"/>
      <point x="267" y="613" type="curve" smooth="yes"/>
      <point x="240" y="605"/>
      <point x="213" y="597"/>
      <point x="179" y="597" type="curve" smooth="yes"/>
      <point x="153" y="597"/>
      <point x="130" y="609"/>
      <point x="112" y="622" type="curve" smooth="yes"/>
      <point x="95" y="634"/>
      <point x="83" y="640"/>
      <point x="71" y="640" type="curve" smooth="yes"/>
      <point x="54" y="640"/>
      <point x="40" y="619"/>
      <point x="40" y="604" type="curve" smooth="yes"/>
      <point x="40" y="600"/>
      <point x="42" y="594"/>
      <point x="45" y="589" type="curve" smooth="yes"/>
      <point x="71" y="546"/>
      <point x="114" y="522"/>
      <point x="177" y="522" type="curve" smooth="yes"/>
      <point x="208" y="522"/>
      <point x="227" y="527"/>
      <point x="249" y="535" type="curve" smooth="yes"/>
      <point x="272" y="543"/>
      <point x="284" y="545"/>
      <point x="300" y="545" type="curve" smooth="yes"/>
      <point x="355" y="545"/>
      <point x="369" y="471"/>
      <point x="369" y="348" type="curve" smooth="yes"/>
      <point x="369" y="115"/>
      <point x="299" y="63"/>
      <point x="246" y="63" type="curve" smooth="yes"/>
      <point x="206" y="63"/>
      <point x="174" y="88"/>
      <point x="174" y="170" type="curve" smooth="yes"/>
      <point x="174" y="207"/>
      <point x="180" y="289"/>
      <point x="188" y="371" type="curve" smooth="yes"/>
      <point x="196" y="452"/>
      <point x="202" y="533"/>
      <point x="202" y="569" type="curve"/>
      <point x="117" y="569" type="line"/>
      <point x="117" y="495"/>
      <point x="114" y="454"/>
      <point x="103" y="364" type="curve" smooth="yes"/>
      <point x="95" y="298"/>
      <point x="87" y="231"/>
      <point x="87" y="178" type="curve" smooth="yes"/>
      <point x="87" y="45"/>
      <point x="149" y="-10"/>
    </contour>
  </outline>
</glyph>
<glyph name="u10893" format="2">
  <advance width="474"/>
  <unicode hex="10893"/>
  <outline>
    <contour>
      <point x="232" y="-10" type="curve" smooth="yes"/>
      <point x="324" y="-10"/>
      <point x="404" y="41"/>
      <point x="404" y="325" type="curve" smooth="yes"/>
      <point x="404" y="439"/>
      <point x="397" y="620"/>
      <point x="281" y="620" type="curve" smooth="yes"/>
      <point x="241" y="620"/>
      <point x="187" y="602"/>
      <point x="138" y="585" type="curve"/>
      <point x="121" y="626"/>
      <point x="94" y="661"/>
      <point x="64" y="661" type="curve" smooth="yes"/>
      <point x="46" y="661"/>
      <point x="20" y="633"/>
      <point x="20" y="619" type="curve" smooth="yes"/>
      <point x="20" y="610"/>
      <point x="24" y="605"/>
      <point x="30" y="598" type="curve" smooth="yes"/>
      <point x="48" y="579"/>
      <point x="81" y="543"/>
      <point x="81" y="475" type="curve" smooth="yes"/>
      <point x="81" y="435"/>
      <point x="60" y="410"/>
      <point x="45" y="393" type="curve" smooth="yes"/>
      <point x="35" y="382"/>
      <point x="31" y="377"/>
      <point x="31" y="370" type="curve" smooth="yes"/>
      <point x="31" y="352"/>
      <point x="64" y="327"/>
      <point x="77" y="327" type="curve" smooth="yes"/>
      <point x="109" y="327"/>
      <point x="161" y="390"/>
      <point x="161" y="477" type="curve" smooth="yes"/>
      <point x="161" y="490"/>
      <point x="160" y="502"/>
      <point x="157" y="515" type="curve"/>
      <point x="200" y="531"/>
      <point x="230" y="541"/>
      <point x="254" y="541" type="curve" smooth="yes"/>
      <point x="310" y="541"/>
      <point x="314" y="446"/>
      <point x="314" y="330" type="curve" smooth="yes"/>
      <point x="314" y="115"/>
      <point x="284" y="63"/>
      <point x="234" y="63" type="curve" smooth="yes"/>
      <point x="187" y="63"/>
      <point x="167" y="94"/>
      <point x="150" y="121" type="curve" smooth="yes"/>
      <point x="136" y="143"/>
      <point x="126" y="149"/>
      <point x="106" y="149" type="curve" smooth="yes"/>
      <point x="85" y="149"/>
      <point x="74" y="138"/>
      <point x="74" y="117" type="curve" smooth="yes"/>
      <point x="74" y="52"/>
      <point x="152" y="-10"/>
    </contour>
  </outline>
</glyph>
<glyph name="u10894" format="2">
  <advance width="329"/>
  <unicode hex="10894"/>
  <outline>
    <contour>
      <point x="196" y="-163" type="curve" smooth="yes"/>
      <point x="234" y="-163"/>
      <point x="239" y="-148"/>
      <point x="239" y="-112" type="curve" smooth="yes"/>
      <point x="239" y="515" type="line" smooth="yes"/>
      <point x="239" y="560"/>
      <point x="229" y="588"/>
      <point x="171" y="607" type="curve" smooth="yes"/>
      <point x="108" y="628"/>
      <point x="63" y="640"/>
      <point x="40" y="640" type="curve" smooth="yes"/>
      <point x="21" y="640"/>
      <point x="10" y="625"/>
      <point x="10" y="599" type="curve" smooth="yes"/>
      <point x="10" y="568"/>
      <point x="21" y="559"/>
      <point x="42" y="552" type="curve" smooth="yes"/>
      <point x="140" y="519"/>
      <point x="151" y="515"/>
      <point x="151" y="466" type="curve" smooth="yes"/>
      <point x="151" y="-112" type="line" smooth="yes"/>
      <point x="151" y="-148"/>
      <point x="157" y="-163"/>
    </contour>
  </outline>
</glyph>
<glyph name="u10895" format="2">
  <advance width="425"/>
  <unicode hex="10895"/>
  <outline>
    <contour>
      <point x="147" y="-7" type="curve" smooth="yes"/>
      <point x="179" y="-7"/>
      <point x="217" y="-6"/>
      <point x="261" y="1" type="curve" smooth="yes"/>
      <point x="314" y="9"/>
      <point x="335" y="27"/>
      <point x="335" y="82" type="curve" smooth="yes"/>
      <point x="335" y="110"/>
      <point x="303" y="602"/>
      <point x="301" y="619" type="curve" smooth="yes"/>
      <point x="299" y="640"/>
      <point x="280" y="640"/>
      <point x="256" y="640" type="curve" smooth="yes"/>
      <point x="228" y="640"/>
      <point x="216" y="633"/>
      <point x="216" y="612" type="curve" smooth="yes"/>
      <point x="216" y="593"/>
      <point x="222" y="506"/>
      <point x="230" y="404" type="curve" smooth="yes"/>
      <point x="241" y="270"/>
      <point x="251" y="147"/>
      <point x="251" y="117" type="curve" smooth="yes"/>
      <point x="251" y="76"/>
      <point x="209" y="73"/>
      <point x="132" y="73" type="curve" smooth="yes"/>
      <point x="116" y="73"/>
      <point x="96" y="74"/>
      <point x="75" y="77" type="curve" smooth="yes"/>
      <point x="61" y="79"/>
      <point x="51" y="80"/>
      <point x="43" y="80" type="curve" smooth="yes"/>
      <point x="20" y="80"/>
      <point x="10" y="67"/>
      <point x="10" y="40" type="curve" smooth="yes"/>
      <point x="10" y="24"/>
      <point x="15" y="5"/>
      <point x="45" y="0" type="curve" smooth="yes"/>
      <point x="60" y="-3"/>
      <point x="84" y="-7"/>
    </contour>
  </outline>
</glyph>
<glyph name="u10896" format="2">
  <advance width="714"/>
  <unicode hex="10896"/>
  <outline>
    <contour>
      <point x="244" y="-10" type="curve" smooth="yes"/>
      <point x="264" y="-10"/>
      <point x="274" y="-6"/>
      <point x="296" y="3" type="curve" smooth="yes"/>
      <point x="468" y="73"/>
      <point x="674" y="273"/>
      <point x="674" y="456" type="curve" smooth="yes"/>
      <point x="674" y="543"/>
      <point x="620" y="595"/>
      <point x="516" y="595" type="curve" smooth="yes"/>
      <point x="447" y="595"/>
      <point x="390" y="562"/>
      <point x="335" y="529" type="curve" smooth="yes"/>
      <point x="317" y="518"/>
      <point x="299" y="507"/>
      <point x="280" y="498" type="curve"/>
      <point x="280" y="508" type="line" smooth="yes"/>
      <point x="280" y="578"/>
      <point x="246" y="640"/>
      <point x="153" y="640" type="curve" smooth="yes"/>
      <point x="84" y="640"/>
      <point x="26" y="587"/>
      <point x="26" y="515" type="curve" smooth="yes"/>
      <point x="26" y="439"/>
      <point x="76" y="393"/>
      <point x="157" y="393" type="curve" smooth="yes"/>
      <point x="171" y="393"/>
      <point x="184" y="394"/>
      <point x="197" y="396" type="curve"/>
      <point x="197" y="50" type="line" smooth="yes"/>
      <point x="197" y="10"/>
      <point x="216" y="-10"/>
    </contour>
    <contour>
      <point x="161" y="465" type="curve" smooth="yes"/>
      <point x="117" y="465"/>
      <point x="106" y="498"/>
      <point x="106" y="519" type="curve" smooth="yes"/>
      <point x="106" y="550"/>
      <point x="125" y="566"/>
      <point x="149" y="566" type="curve" smooth="yes"/>
      <point x="192" y="566"/>
      <point x="197" y="536"/>
      <point x="197" y="477" type="curve" smooth="yes"/>
      <point x="197" y="468" type="line"/>
      <point x="185" y="466"/>
      <point x="173" y="465"/>
    </contour>
    <contour>
      <point x="280" y="81" type="curve"/>
      <point x="280" y="420" type="line"/>
      <point x="307" y="432"/>
      <point x="334" y="447"/>
      <point x="363" y="464" type="curve" smooth="yes"/>
      <point x="412" y="493"/>
      <point x="459" y="520"/>
      <point x="514" y="520" type="curve" smooth="yes"/>
      <point x="560" y="520"/>
      <point x="586" y="496"/>
      <point x="586" y="447" type="curve" smooth="yes"/>
      <point x="586" y="310"/>
      <point x="421" y="152"/>
    </contour>
  </outline>
</glyph>
<glyph name="u10897" format="2">
  <advance width="560"/>
  <unicode hex="10897"/>
  <outline>
    <contour>
      <point x="56" y="-10" type="curve" smooth="yes"/>
      <point x="70" y="-10"/>
      <point x="96" y="0"/>
      <point x="107" y="5" type="curve" smooth="yes"/>
      <point x="347" y="114"/>
      <point x="520" y="325"/>
      <point x="520" y="520" type="curve" smooth="yes"/>
      <point x="520" y="547"/>
      <point x="506" y="550"/>
      <point x="477" y="550" type="curve" smooth="yes"/>
      <point x="444" y="550"/>
      <point x="437" y="538"/>
      <point x="434" y="508" type="curve" smooth="yes"/>
      <point x="424" y="422"/>
      <point x="377" y="317"/>
      <point x="295" y="231" type="curve"/>
      <point x="239" y="269"/>
      <point x="194" y="358"/>
      <point x="194" y="457" type="curve" smooth="yes"/>
      <point x="194" y="502"/>
      <point x="194" y="513"/>
      <point x="154" y="513" type="curve" smooth="yes"/>
      <point x="111" y="513"/>
      <point x="107" y="489"/>
      <point x="107" y="434" type="curve" smooth="yes"/>
      <point x="107" y="339"/>
      <point x="162" y="228"/>
      <point x="233" y="174" type="curve"/>
      <point x="191" y="139"/>
      <point x="146" y="108"/>
      <point x="96" y="87" type="curve" smooth="yes"/>
      <point x="41" y="64"/>
      <point x="20" y="55"/>
      <point x="20" y="30" type="curve" smooth="yes"/>
      <point x="20" y="4"/>
      <point x="35" y="-10"/>
    </contour>
  </outline>
</glyph>
<glyph name="u10898" format="2">
  <advance width="457"/>
  <unicode hex="10898"/>
  <outline>
    <contour>
      <point x="222" y="-10" type="curve" smooth="yes"/>
      <point x="364" y="-10"/>
      <point x="367" y="97"/>
      <point x="367" y="193" type="curve" smooth="yes"/>
      <point x="367" y="443" type="line" smooth="yes"/>
      <point x="367" y="533"/>
      <point x="346" y="640"/>
      <point x="205" y="640" type="curve" smooth="yes"/>
      <point x="107" y="640"/>
      <point x="40" y="587"/>
      <point x="40" y="491" type="curve" smooth="yes"/>
      <point x="40" y="402"/>
      <point x="101" y="348"/>
      <point x="199" y="348" type="curve" smooth="yes"/>
      <point x="231" y="348"/>
      <point x="266" y="354"/>
      <point x="304" y="372" type="curve"/>
      <point x="304" y="437" type="line"/>
      <point x="264" y="424"/>
      <point x="233" y="419"/>
      <point x="209" y="419" type="curve" smooth="yes"/>
      <point x="134" y="419"/>
      <point x="125" y="469"/>
      <point x="125" y="496" type="curve" smooth="yes"/>
      <point x="125" y="535"/>
      <point x="146" y="566"/>
      <point x="198" y="566" type="curve" smooth="yes"/>
      <point x="279" y="566"/>
      <point x="279" y="488"/>
      <point x="279" y="456" type="curve" smooth="yes"/>
      <point x="279" y="213" type="line" smooth="yes"/>
      <point x="279" y="120"/>
      <point x="274" y="68"/>
      <point x="217" y="68" type="curve" smooth="yes"/>
      <point x="191" y="68"/>
      <point x="159" y="80"/>
      <point x="135" y="92" type="curve" smooth="yes"/>
      <point x="117" y="101"/>
      <point x="103" y="106"/>
      <point x="94" y="106" type="curve" smooth="yes"/>
      <point x="74" y="106"/>
      <point x="61" y="80"/>
      <point x="61" y="62" type="curve" smooth="yes"/>
      <point x="61" y="47"/>
      <point x="67" y="41"/>
      <point x="76" y="35" type="curve" smooth="yes"/>
      <point x="103" y="17"/>
      <point x="153" y="-10"/>
    </contour>
  </outline>
</glyph>
<glyph name="u10899" format="2">
  <advance width="624"/>
  <unicode hex="10899"/>
  <outline>
    <contour>
      <point x="186" y="-10" type="curve" smooth="yes"/>
      <point x="329" y="-10"/>
      <point x="331" y="97"/>
      <point x="331" y="193" type="curve" smooth="yes"/>
      <point x="331" y="503" type="line"/>
      <point x="356" y="507"/>
      <point x="381" y="509"/>
      <point x="414" y="509" type="curve" smooth="yes"/>
      <point x="468" y="509"/>
      <point x="497" y="495"/>
      <point x="497" y="456" type="curve" smooth="yes"/>
      <point x="497" y="413"/>
      <point x="454" y="390"/>
      <point x="408" y="376" type="curve" smooth="yes"/>
      <point x="398" y="373"/>
      <point x="394" y="366"/>
      <point x="394" y="355" type="curve" smooth="yes"/>
      <point x="394" y="328"/>
      <point x="407" y="314"/>
      <point x="434" y="314" type="curve" smooth="yes"/>
      <point x="468" y="314"/>
      <point x="584" y="345"/>
      <point x="584" y="468" type="curve" smooth="yes"/>
      <point x="584" y="553"/>
      <point x="501" y="584"/>
      <point x="409" y="584" type="curve" smooth="yes"/>
      <point x="379" y="584"/>
      <point x="358" y="581"/>
      <point x="331" y="576" type="curve"/>
      <point x="331" y="589" type="line" smooth="yes"/>
      <point x="331" y="625"/>
      <point x="325" y="640"/>
      <point x="286" y="640" type="curve" smooth="yes"/>
      <point x="248" y="640"/>
      <point x="243" y="625"/>
      <point x="243" y="589" type="curve" smooth="yes"/>
      <point x="243" y="213" type="line" smooth="yes"/>
      <point x="243" y="120"/>
      <point x="238" y="68"/>
      <point x="181" y="68" type="curve" smooth="yes"/>
      <point x="155" y="68"/>
      <point x="123" y="80"/>
      <point x="99" y="92" type="curve" smooth="yes"/>
      <point x="81" y="101"/>
      <point x="67" y="106"/>
      <point x="58" y="106" type="curve" smooth="yes"/>
      <point x="38" y="106"/>
      <point x="25" y="80"/>
      <point x="25" y="62" type="curve" smooth="yes"/>
      <point x="25" y="47"/>
      <point x="31" y="41"/>
      <point x="40" y="35" type="curve" smooth="yes"/>
      <point x="67" y="17"/>
      <point x="117" y="-10"/>
    </contour>
  </outline>
</glyph>
<glyph name="u1089A" format="2">
  <advance width="432"/>
  <unicode hex="1089A"/>
  <outline>
    <contour>
      <point x="15" y="-163" type="curve" smooth="yes"/>
      <point x="111" y="-162"/>
      <point x="177" y="-41"/>
      <point x="177" y="74" type="curve" smooth="yes"/>
      <point x="177" y="318" type="line"/>
      <point x="335" y="333"/>
      <point x="392" y="390"/>
      <point x="392" y="493" type="curve" smooth="yes"/>
      <point x="392" y="603"/>
      <point x="322" y="640"/>
      <point x="209" y="640" type="curve" smooth="yes"/>
      <point x="114" y="640"/>
      <point x="89" y="630"/>
      <point x="89" y="582" type="curve" smooth="yes"/>
      <point x="89" y="76" type="line" smooth="yes"/>
      <point x="89" y="27"/>
      <point x="71" y="-49"/>
      <point x="2" y="-92" type="curve" smooth="yes"/>
      <point x="-17" y="-104"/>
      <point x="-20" y="-115"/>
      <point x="-20" y="-130" type="curve" smooth="yes"/>
      <point x="-20" y="-156"/>
      <point x="-4" y="-163"/>
    </contour>
    <contour>
      <point x="177" y="397" type="curve"/>
      <point x="177" y="558" type="line"/>
      <point x="195" y="563"/>
      <point x="210" y="565"/>
      <point x="227" y="565" type="curve" smooth="yes"/>
      <point x="276" y="565"/>
      <point x="302" y="540"/>
      <point x="302" y="491" type="curve" smooth="yes"/>
      <point x="302" y="424"/>
      <point x="252" y="407"/>
    </contour>
  </outline>
</glyph>
<glyph name="u1089B" format="2">
  <advance width="389"/>
  <unicode hex="1089B"/>
  <outline>
    <contour>
      <point x="256" y="-10" type="curve" smooth="yes"/>
      <point x="294" y="-10"/>
      <point x="299" y="5"/>
      <point x="299" y="41" type="curve" smooth="yes"/>
      <point x="299" y="515" type="line" smooth="yes"/>
      <point x="299" y="560"/>
      <point x="289" y="593"/>
      <point x="231" y="607" type="curve" smooth="yes"/>
      <point x="139" y="630"/>
      <point x="65" y="640"/>
      <point x="42" y="640" type="curve" smooth="yes"/>
      <point x="22" y="640"/>
      <point x="10" y="629"/>
      <point x="10" y="598" type="curve" smooth="yes"/>
      <point x="10" y="571"/>
      <point x="20" y="561"/>
      <point x="47" y="556" type="curve" smooth="yes"/>
      <point x="170" y="533" type="line" smooth="yes"/>
      <point x="206" y="526"/>
      <point x="211" y="507"/>
      <point x="211" y="469" type="curve" smooth="yes"/>
      <point x="211" y="41" type="line" smooth="yes"/>
      <point x="211" y="5"/>
      <point x="217" y="-10"/>
    </contour>
  </outline>
</glyph>
<glyph name="u1089C" format="2">
  <advance width="483"/>
  <unicode hex="1089C"/>
  <outline>
    <contour>
      <point x="135" y="-163" type="curve" smooth="yes"/>
      <point x="173" y="-163"/>
      <point x="178" y="-148"/>
      <point x="178" y="-112" type="curve" smooth="yes"/>
      <point x="178" y="170" type="line"/>
      <point x="398" y="290" type="line" smooth="yes"/>
      <point x="423" y="304"/>
      <point x="433" y="310"/>
      <point x="433" y="326" type="curve" smooth="yes"/>
      <point x="433" y="350"/>
      <point x="419" y="375"/>
      <point x="401" y="375" type="curve" smooth="yes"/>
      <point x="389" y="375"/>
      <point x="377" y="369"/>
      <point x="363" y="361" type="curve" smooth="yes"/>
      <point x="178" y="260" type="line"/>
      <point x="178" y="368" type="line"/>
      <point x="323" y="449" type="line" smooth="yes"/>
      <point x="348" y="463"/>
      <point x="358" y="469"/>
      <point x="358" y="485" type="curve" smooth="yes"/>
      <point x="358" y="509"/>
      <point x="344" y="534"/>
      <point x="326" y="534" type="curve" smooth="yes"/>
      <point x="314" y="534"/>
      <point x="302" y="528"/>
      <point x="288" y="520" type="curve" smooth="yes"/>
      <point x="178" y="458" type="line"/>
      <point x="178" y="499" type="line" smooth="yes"/>
      <point x="178" y="535"/>
      <point x="172" y="550"/>
      <point x="133" y="550" type="curve" smooth="yes"/>
      <point x="95" y="550"/>
      <point x="90" y="535"/>
      <point x="90" y="499" type="curve" smooth="yes"/>
      <point x="90" y="-112" type="line" smooth="yes"/>
      <point x="90" y="-148"/>
      <point x="96" y="-163"/>
    </contour>
  </outline>
</glyph>
<glyph name="u1089D" format="2">
  <advance width="511"/>
  <unicode hex="1089D"/>
  <outline>
    <contour>
      <point x="70" y="-163" type="curve" smooth="yes"/>
      <point x="174" y="-163"/>
      <point x="206" y="-107"/>
      <point x="206" y="-15" type="curve" smooth="yes"/>
      <point x="206" y="244" type="line"/>
      <point x="426" y="364" type="line" smooth="yes"/>
      <point x="451" y="378"/>
      <point x="461" y="384"/>
      <point x="461" y="400" type="curve" smooth="yes"/>
      <point x="461" y="424"/>
      <point x="447" y="449"/>
      <point x="429" y="449" type="curve" smooth="yes"/>
      <point x="417" y="449"/>
      <point x="405" y="443"/>
      <point x="391" y="435" type="curve" smooth="yes"/>
      <point x="206" y="334" type="line"/>
      <point x="206" y="442" type="line"/>
      <point x="351" y="523" type="line" smooth="yes"/>
      <point x="376" y="537"/>
      <point x="386" y="543"/>
      <point x="386" y="559" type="curve" smooth="yes"/>
      <point x="386" y="583"/>
      <point x="372" y="608"/>
      <point x="354" y="608" type="curve" smooth="yes"/>
      <point x="342" y="608"/>
      <point x="330" y="602"/>
      <point x="316" y="594" type="curve" smooth="yes"/>
      <point x="206" y="532" type="line"/>
      <point x="206" y="589" type="line" smooth="yes"/>
      <point x="206" y="625"/>
      <point x="200" y="640"/>
      <point x="161" y="640" type="curve" smooth="yes"/>
      <point x="123" y="640"/>
      <point x="118" y="625"/>
      <point x="118" y="589" type="curve" smooth="yes"/>
      <point x="118" y="6" type="line" smooth="yes"/>
      <point x="118" y="-41"/>
      <point x="113" y="-90"/>
      <point x="68" y="-90" type="curve" smooth="yes"/>
      <point x="51" y="-90"/>
      <point x="39" y="-86"/>
      <point x="28" y="-80" type="curve" smooth="yes"/>
      <point x="20" y="-75"/>
      <point x="10" y="-69"/>
      <point x="-2" y="-69" type="curve" smooth="yes"/>
      <point x="-21" y="-69"/>
      <point x="-29" y="-81"/>
      <point x="-29" y="-105" type="curve" smooth="yes"/>
      <point x="-29" y="-147"/>
      <point x="18" y="-163"/>
    </contour>
  </outline>
</glyph>
<glyph name="u1089E" format="2">
  <advance width="656"/>
  <unicode hex="1089E"/>
  <outline>
    <contour>
      <point x="142" y="-10" type="curve" smooth="yes"/>
      <point x="216" y="-10"/>
      <point x="266" y="28"/>
      <point x="274" y="102" type="curve" smooth="yes"/>
      <point x="279" y="152"/>
      <point x="288" y="300"/>
      <point x="295" y="427" type="curve"/>
      <point x="326" y="455"/>
      <point x="405" y="496"/>
      <point x="443" y="496" type="curve" smooth="yes"/>
      <point x="471" y="496"/>
      <point x="479" y="482"/>
      <point x="479" y="447" type="curve" smooth="yes"/>
      <point x="479" y="433"/>
      <point x="474" y="349"/>
      <point x="468" y="258" type="curve" smooth="yes"/>
      <point x="461" y="155"/>
      <point x="455" y="45"/>
      <point x="455" y="24" type="curve" smooth="yes"/>
      <point x="455" y="-2"/>
      <point x="472" y="-10"/>
      <point x="500" y="-10" type="curve" smooth="yes"/>
      <point x="536" y="-10"/>
      <point x="542" y="2"/>
      <point x="544" y="28" type="curve" smooth="yes"/>
      <point x="546" y="56"/>
      <point x="568" y="424"/>
      <point x="568" y="478" type="curve" smooth="yes"/>
      <point x="568" y="555"/>
      <point x="542" y="585"/>
      <point x="483" y="585" type="curve" smooth="yes"/>
      <point x="416" y="585"/>
      <point x="341" y="540"/>
      <point x="300" y="515" type="curve"/>
      <point x="303" y="560"/>
      <point x="305" y="592"/>
      <point x="305" y="613" type="curve" smooth="yes"/>
      <point x="305" y="634"/>
      <point x="292" y="640"/>
      <point x="263" y="640" type="curve" smooth="yes"/>
      <point x="242" y="640"/>
      <point x="219" y="637"/>
      <point x="218" y="612" type="curve" smooth="yes"/>
      <point x="216" y="564"/>
      <point x="196" y="153"/>
      <point x="190" y="112" type="curve" smooth="yes"/>
      <point x="185" y="77"/>
      <point x="165" y="65"/>
      <point x="138" y="65" type="curve" smooth="yes"/>
      <point x="117" y="65"/>
      <point x="97" y="68"/>
      <point x="78" y="77" type="curve" smooth="yes"/>
      <point x="65" y="83"/>
      <point x="52" y="87"/>
      <point x="39" y="87" type="curve" smooth="yes"/>
      <point x="22" y="87"/>
      <point x="10" y="79"/>
      <point x="10" y="48" type="curve" smooth="yes"/>
      <point x="10" y="-6"/>
      <point x="97" y="-10"/>
    </contour>
  </outline>
</glyph>
<glyph name="u108A7" format="2">
  <advance width="268"/>
  <unicode hex="108A7"/>
  <outline>
    <contour>
      <point x="135" y="-10" type="curve" smooth="yes"/>
      <point x="173" y="-10"/>
      <point x="178" y="5"/>
      <point x="178" y="41" type="curve" smooth="yes"/>
      <point x="178" y="589" type="line" smooth="yes"/>
      <point x="178" y="625"/>
      <point x="172" y="640"/>
      <point x="133" y="640" type="curve" smooth="yes"/>
      <point x="95" y="640"/>
      <point x="90" y="625"/>
      <point x="90" y="589" type="curve" smooth="yes"/>
      <point x="90" y="41" type="line" smooth="yes"/>
      <point x="90" y="5"/>
      <point x="96" y="-10"/>
    </contour>
  </outline>
</glyph>
<glyph name="u108A8" format="2">
  <advance width="460"/>
  <unicode hex="108A8"/>
  <outline>
    <contour>
      <point x="227" y="-10" type="curve" smooth="yes"/>
      <point x="319" y="-10"/>
      <point x="370" y="23"/>
      <point x="370" y="132" type="curve" smooth="yes"/>
      <point x="370" y="589" type="line" smooth="yes"/>
      <point x="370" y="625"/>
      <point x="364" y="640"/>
      <point x="325" y="640" type="curve" smooth="yes"/>
      <point x="287" y="640"/>
      <point x="285" y="625"/>
      <point x="285" y="589" type="curve" smooth="yes"/>
      <point x="285" y="130" type="line" smooth="yes"/>
      <point x="285" y="78"/>
      <point x="259" y="65"/>
      <point x="230" y="65" type="curve" smooth="yes"/>
      <point x="199" y="65"/>
      <point x="175" y="78"/>
      <point x="175" y="130" type="curve" smooth="yes"/>
      <point x="175" y="589" type="line" smooth="yes"/>
      <point x="175" y="625"/>
      <point x="169" y="640"/>
      <point x="133" y="640" type="curve" smooth="yes"/>
      <point x="95" y="640"/>
      <point x="90" y="625"/>
      <point x="90" y="589" type="curve" smooth="yes"/>
      <point x="90" y="130" type="line" smooth="yes"/>
      <point x="90" y="23"/>
      <point x="144" y="-10"/>
    </contour>
  </outline>
</glyph>
<glyph name="u108A9" format="2">
  <advance width="655"/>
  <unicode hex="108A9"/>
  <outline>
    <contour>
      <point x="227" y="-10" type="curve" smooth="yes"/>
      <point x="278" y="-10"/>
      <point x="315" y="5"/>
      <point x="341" y="48" type="curve"/>
      <point x="316" y="48" type="line"/>
      <point x="339" y="5"/>
      <point x="375" y="-10"/>
      <point x="422" y="-10" type="curve" smooth="yes"/>
      <point x="514" y="-10"/>
      <point x="565" y="23"/>
      <point x="565" y="132" type="curve" smooth="yes"/>
      <point x="565" y="589" type="line" smooth="yes"/>
      <point x="565" y="625"/>
      <point x="560" y="640"/>
      <point x="521" y="640" type="curve" smooth="yes"/>
      <point x="483" y="640"/>
      <point x="480" y="625"/>
      <point x="480" y="589" type="curve" smooth="yes"/>
      <point x="480" y="130" type="line" smooth="yes"/>
      <point x="480" y="78"/>
      <point x="454" y="65"/>
      <point x="425" y="65" type="curve" smooth="yes"/>
      <point x="394" y="65"/>
      <point x="370" y="78"/>
      <point x="370" y="130" type="curve" smooth="yes"/>
      <point x="370" y="589" type="line" smooth="yes"/>
      <point x="370" y="625"/>
      <point x="366" y="640"/>
      <point x="327" y="640" type="curve" smooth="yes"/>
      <point x="289" y="640"/>
      <point x="285" y="625"/>
      <point x="285" y="589" type="curve" smooth="yes"/>
      <point x="285" y="130" type="line" smooth="yes"/>
      <point x="285" y="78"/>
      <point x="259" y="65"/>
      <point x="230" y="65" type="curve" smooth="yes"/>
      <point x="199" y="65"/>
      <point x="175" y="78"/>
      <point x="175" y="130" type="curve" smooth="yes"/>
      <point x="175" y="589" type="line" smooth="yes"/>
      <point x="175" y="625"/>
      <point x="168" y="640"/>
      <point x="132" y="640" type="curve" smooth="yes"/>
      <point x="94" y="640"/>
      <point x="90" y="625"/>
      <point x="90" y="589" type="curve" smooth="yes"/>
      <point x="90" y="130" type="line" smooth="yes"/>
      <point x="90" y="23"/>
      <point x="144" y="-10"/>
    </contour>
  </outline>
</glyph>
<glyph name="u108AA" format="2">
  <advance width="850"/>
  <unicode hex="108AA"/>
  <outline>
    <contour>
      <point x="227" y="-10" type="curve" smooth="yes"/>
      <point x="278" y="-10"/>
      <point x="315" y="5"/>
      <point x="341" y="48" type="curve"/>
      <point x="316" y="48" type="line"/>
      <point x="339" y="5"/>
      <point x="375" y="-10"/>
      <point x="422" y="-10" type="curve" smooth="yes"/>
      <point x="473" y="-10"/>
      <point x="510" y="5"/>
      <point x="536" y="48" type="curve"/>
      <point x="511" y="48" type="line"/>
      <point x="534" y="5"/>
      <point x="570" y="-10"/>
      <point x="625" y="-10" type="curve" smooth="yes"/>
      <point x="709" y="-10"/>
      <point x="760" y="23"/>
      <point x="760" y="132" type="curve" smooth="yes"/>
      <point x="760" y="589" type="line" smooth="yes"/>
      <point x="760" y="625"/>
      <point x="756" y="640"/>
      <point x="717" y="640" type="curve" smooth="yes"/>
      <point x="679" y="640"/>
      <point x="675" y="625"/>
      <point x="675" y="589" type="curve" smooth="yes"/>
      <point x="675" y="130" type="line" smooth="yes"/>
      <point x="675" y="78"/>
      <point x="649" y="65"/>
      <point x="620" y="65" type="curve" smooth="yes"/>
      <point x="589" y="65"/>
      <point x="565" y="78"/>
      <point x="565" y="130" type="curve" smooth="yes"/>
      <point x="565" y="589" type="line" smooth="yes"/>
      <point x="565" y="625"/>
      <point x="561" y="640"/>
      <point x="522" y="640" type="curve" smooth="yes"/>
      <point x="484" y="640"/>
      <point x="480" y="625"/>
      <point x="480" y="589" type="curve" smooth="yes"/>
      <point x="480" y="130" type="line" smooth="yes"/>
      <point x="480" y="78"/>
      <point x="454" y="65"/>
      <point x="425" y="65" type="curve" smooth="yes"/>
      <point x="394" y="65"/>
      <point x="370" y="78"/>
      <point x="370" y="130" type="curve" smooth="yes"/>
      <point x="370" y="589" type="line" smooth="yes"/>
      <point x="370" y="625"/>
      <point x="364" y="640"/>
      <point x="328" y="640" type="curve" smooth="yes"/>
      <point x="287" y="640"/>
      <point x="285" y="625"/>
      <point x="285" y="589" type="curve" smooth="yes"/>
      <point x="285" y="130" type="line" smooth="yes"/>
      <point x="285" y="78"/>
      <point x="259" y="65"/>
      <point x="230" y="65" type="curve" smooth="yes"/>
      <point x="199" y="65"/>
      <point x="175" y="78"/>
      <point x="175" y="130" type="curve" smooth="yes"/>
      <point x="175" y="589" type="line" smooth="yes"/>
      <point x="175" y="625"/>
      <point x="169" y="640"/>
      <point x="133" y="640" type="curve" smooth="yes"/>
      <point x="95" y="640"/>
      <point x="90" y="625"/>
      <point x="90" y="589" type="curve" smooth="yes"/>
      <point x="90" y="130" type="line" smooth="yes"/>
      <point x="90" y="23"/>
      <point x="144" y="-10"/>
    </contour>
  </outline>
</glyph>
<glyph name="u108AB" format="2">
  <advance width="703"/>
  <unicode hex="108AB"/>
  <outline>
    <contour>
      <point x="605" y="-10" type="curve" smooth="yes"/>
      <point x="614" y="-10"/>
      <point x="623" y="-5"/>
      <point x="633" y="5" type="curve" smooth="yes"/>
      <point x="647" y="19"/>
      <point x="652" y="26"/>
      <point x="652" y="36" type="curve" smooth="yes"/>
      <point x="652" y="47"/>
      <point x="645" y="57"/>
      <point x="632" y="71" type="curve" smooth="yes"/>
      <point x="129" y="622" type="line" smooth="yes"/>
      <point x="118" y="634"/>
      <point x="109" y="640"/>
      <point x="100" y="640" type="curve" smooth="yes"/>
      <point x="91" y="640"/>
      <point x="83" y="636"/>
      <point x="70" y="625" type="curve" smooth="yes"/>
      <point x="56" y="613"/>
      <point x="50" y="603"/>
      <point x="50" y="593" type="curve" smooth="yes"/>
      <point x="50" y="585"/>
      <point x="56" y="575"/>
      <point x="66" y="565" type="curve" smooth="yes"/>
      <point x="570" y="14" type="line" smooth="yes"/>
      <point x="583" y="-1"/>
      <point x="594" y="-10"/>
    </contour>
    <contour>
      <point x="103" y="-10" type="curve" smooth="yes"/>
      <point x="114" y="-10"/>
      <point x="125" y="-1"/>
      <point x="138" y="14" type="curve" smooth="yes"/>
      <point x="637" y="565" type="line" smooth="yes"/>
      <point x="647" y="576"/>
      <point x="653" y="585"/>
      <point x="653" y="593" type="curve" smooth="yes"/>
      <point x="653" y="603"/>
      <point x="648" y="613"/>
      <point x="633" y="625" type="curve" smooth="yes"/>
      <point x="620" y="635"/>
      <point x="612" y="640"/>
      <point x="603" y="640" type="curve" smooth="yes"/>
      <point x="594" y="640"/>
      <point x="586" y="634"/>
      <point x="575" y="622" type="curve" smooth="yes"/>
      <point x="76" y="71" type="line" smooth="yes"/>
      <point x="64" y="57"/>
      <point x="56" y="47"/>
      <point x="56" y="36" type="curve" smooth="yes"/>
      <point x="56" y="26"/>
      <point x="62" y="18"/>
      <point x="75" y="5" type="curve" smooth="yes"/>
      <point x="86" y="-6"/>
      <point x="94" y="-10"/>
    </contour>
  </outline>
</glyph>
<glyph name="u108AC" format="2">
  <advance width="411"/>
  <unicode hex="108AC"/>
  <outline>
    <contour>
      <point x="56" y="-10" type="curve" smooth="yes"/>
      <point x="110" y="-10"/>
      <point x="361" y="101"/>
      <point x="361" y="262" type="curve" smooth="yes"/>
      <point x="361" y="345"/>
      <point x="294" y="376"/>
      <point x="233" y="376" type="curve" smooth="yes"/>
      <point x="219" y="376"/>
      <point x="201" y="375"/>
      <point x="184" y="373" type="curve"/>
      <point x="252" y="460"/>
      <point x="313" y="537"/>
      <point x="341" y="572" type="curve" smooth="yes"/>
      <point x="349" y="582"/>
      <point x="356" y="592"/>
      <point x="356" y="602" type="curve" smooth="yes"/>
      <point x="356" y="611"/>
      <point x="349" y="620"/>
      <point x="338" y="628" type="curve" smooth="yes"/>
      <point x="323" y="639"/>
      <point x="312" y="640"/>
      <point x="305" y="640" type="curve" smooth="yes"/>
      <point x="296" y="640"/>
      <point x="291" y="636"/>
      <point x="282" y="625" type="curve" smooth="yes"/>
      <point x="237" y="570"/>
      <point x="133" y="432"/>
      <point x="96" y="373" type="curve" smooth="yes"/>
      <point x="86" y="357"/>
      <point x="83" y="347"/>
      <point x="83" y="334" type="curve" smooth="yes"/>
      <point x="83" y="309"/>
      <point x="100" y="296"/>
      <point x="130" y="296" type="curve" smooth="yes"/>
      <point x="140" y="296"/>
      <point x="155" y="298"/>
      <point x="169" y="300" type="curve" smooth="yes"/>
      <point x="184" y="302"/>
      <point x="193" y="303"/>
      <point x="203" y="303" type="curve" smooth="yes"/>
      <point x="246" y="303"/>
      <point x="272" y="289"/>
      <point x="272" y="248" type="curve" smooth="yes"/>
      <point x="272" y="171"/>
      <point x="130" y="93"/>
      <point x="36" y="60" type="curve" smooth="yes"/>
      <point x="25" y="56"/>
      <point x="20" y="50"/>
      <point x="20" y="36" type="curve" smooth="yes"/>
      <point x="20" y="17"/>
      <point x="30" y="-10"/>
    </contour>
  </outline>
</glyph>
<glyph name="u108AD" format="2">
  <advance width="746"/>
  <unicode hex="108AD"/>
  <outline>
    <contour>
      <point x="64" y="-10" type="curve" smooth="yes"/>
      <point x="90" y="-10"/>
      <point x="103" y="12"/>
      <point x="114" y="34" type="curve" smooth="yes"/>
      <point x="190" y="181"/>
      <point x="322" y="329"/>
      <point x="482" y="329" type="curve" smooth="yes"/>
      <point x="584" y="329"/>
      <point x="619" y="273"/>
      <point x="619" y="138" type="curve" smooth="yes"/>
      <point x="619" y="109"/>
      <point x="618" y="93"/>
      <point x="615" y="62" type="curve" smooth="yes"/>
      <point x="614" y="48"/>
      <point x="613" y="30"/>
      <point x="613" y="20" type="curve" smooth="yes"/>
      <point x="613" y="-6"/>
      <point x="636" y="-10"/>
      <point x="657" y="-10" type="curve" smooth="yes"/>
      <point x="686" y="-10"/>
      <point x="696" y="-3"/>
      <point x="699" y="12" type="curve" smooth="yes"/>
      <point x="704" y="38"/>
      <point x="706" y="105"/>
      <point x="706" y="151" type="curve" smooth="yes"/>
      <point x="706" y="300"/>
      <point x="652" y="404"/>
      <point x="497" y="404" type="curve" smooth="yes"/>
      <point x="283" y="404"/>
      <point x="146" y="258"/>
      <point x="41" y="80" type="curve" smooth="yes"/>
      <point x="28" y="58"/>
      <point x="20" y="40"/>
      <point x="20" y="29" type="curve" smooth="yes"/>
      <point x="20" y="-2"/>
      <point x="48" y="-10"/>
    </contour>
  </outline>
</glyph>
<glyph name="u108AE" format="2">
  <advance width="503"/>
  <unicode hex="108AE"/>
  <outline>
    <contour>
      <point x="244" y="-10" type="curve" smooth="yes"/>
      <point x="369" y="-10"/>
      <point x="443" y="67"/>
      <point x="443" y="177" type="curve" smooth="yes"/>
      <point x="443" y="255"/>
      <point x="409" y="326"/>
      <point x="309" y="346" type="curve"/>
      <point x="310" y="326" type="line"/>
      <point x="397" y="359"/>
      <point x="424" y="414"/>
      <point x="424" y="474" type="curve" smooth="yes"/>
      <point x="424" y="562"/>
      <point x="369" y="640"/>
      <point x="241" y="640" type="curve" smooth="yes"/>
      <point x="135" y="640"/>
      <point x="68" y="595"/>
      <point x="68" y="561" type="curve" smooth="yes"/>
      <point x="68" y="532"/>
      <point x="89" y="516"/>
      <point x="111" y="516" type="curve" smooth="yes"/>
      <point x="124" y="516"/>
      <point x="134" y="522"/>
      <point x="144" y="530" type="curve" smooth="yes"/>
      <point x="164" y="545"/>
      <point x="194" y="563"/>
      <point x="237" y="563" type="curve" smooth="yes"/>
      <point x="299" y="563"/>
      <point x="334" y="530"/>
      <point x="334" y="472" type="curve" smooth="yes"/>
      <point x="334" y="410"/>
      <point x="294" y="384"/>
      <point x="216" y="368" type="curve" smooth="yes"/>
      <point x="194" y="364"/>
      <point x="188" y="357"/>
      <point x="188" y="336" type="curve" smooth="yes"/>
      <point x="188" y="311"/>
      <point x="191" y="302"/>
      <point x="216" y="298" type="curve" smooth="yes"/>
      <point x="280" y="288"/>
      <point x="353" y="269"/>
      <point x="353" y="175" type="curve" smooth="yes"/>
      <point x="353" y="104"/>
      <point x="309" y="63"/>
      <point x="243" y="63" type="curve" smooth="yes"/>
      <point x="145" y="63"/>
      <point x="122" y="122"/>
      <point x="110" y="191" type="curve" smooth="yes"/>
      <point x="106" y="214"/>
      <point x="93" y="220"/>
      <point x="70" y="220" type="curve" smooth="yes"/>
      <point x="40" y="220"/>
      <point x="30" y="203"/>
      <point x="30" y="183" type="curve" smooth="yes"/>
      <point x="30" y="121"/>
      <point x="65" y="-10"/>
    </contour>
  </outline>
</glyph>
<glyph name="u108AF" format="2">
  <advance width="408"/>
  <unicode hex="108AF"/>
  <outline>
    <contour>
      <point x="274" y="-10" type="curve" smooth="yes"/>
      <point x="298" y="-10"/>
      <point x="318" y="-5"/>
      <point x="318" y="18" type="curve" smooth="yes"/>
      <point x="318" y="492" type="line" smooth="yes"/>
      <point x="318" y="602"/>
      <point x="261" y="640"/>
      <point x="185" y="640" type="curve" smooth="yes"/>
      <point x="85" y="640"/>
      <point x="40" y="577"/>
      <point x="40" y="509" type="curve" smooth="yes"/>
      <point x="40" y="414"/>
      <point x="107" y="370"/>
      <point x="194" y="370" type="curve" smooth="yes"/>
      <point x="212" y="370"/>
      <point x="230" y="371"/>
      <point x="249" y="376" type="curve"/>
      <point x="245" y="450" type="line"/>
      <point x="231" y="445"/>
      <point x="214" y="442"/>
      <point x="196" y="442" type="curve" smooth="yes"/>
      <point x="155" y="442"/>
      <point x="128" y="462"/>
      <point x="128" y="507" type="curve" smooth="yes"/>
      <point x="128" y="542"/>
      <point x="147" y="566"/>
      <point x="182" y="566" type="curve" smooth="yes"/>
      <point x="212" y="566"/>
      <point x="230" y="549"/>
      <point x="230" y="507" type="curve" smooth="yes"/>
      <point x="230" y="18" type="line" smooth="yes"/>
      <point x="230" y="-3"/>
      <point x="249" y="-10"/>
    </contour>
  </outline>
</glyph>
